DataType=double
version=3
OpenSimVersion=4.4-2022-10-11-798caa840
endheader
time	ground_force_r_vx	ground_force_r_vy	ground_force_r_vz	ground_force_r_px	ground_force_r_py	ground_force_r_pz	ground_force_l_vx	ground_force_l_vy	ground_force_l_vz	ground_force_l_px	ground_force_l_py	ground_force_l_pz	ground_torque_r_x	ground_torque_r_y	ground_torque_r_z	ground_torque_l_x	ground_torque_l_y	ground_torque_l_z
2.985	-38.52073760335534	618.0789222668894	-36.9827021738196	1.299308479260827	0	-0.415865788437665	-0.001848213085521317	0.0006214167537970264	2.643670848250517e-05	1.150743825569207	0	-0.5385676202260615	0	-0.6703388211425789	0	0	-5.245397960928176e-13	0
2.99	-36.0643894766389	607.1423532225177	-36.42790977867488	1.300236941862305	0	-0.4156704345466645	-0.003712424835199986	0.001231688599040104	4.599195798986447e-05	1.170355236654107	0	-0.538687389459148	0	-0.5430652174337496	0	0	-1.441015147105821e-12	0
2.995	-33.65955245574196	596.75647097041	-35.29821821698519	1.301224874449862	0	-0.4155146155614262	-0.007707197915672402	0.002526301244268032	8.232170558476421e-05	1.190079900521404	0	-0.5387874370462716	0	-0.431292064914615	0	0	-4.222997453573636e-12	0
3	-31.29755571889443	586.8872496407672	-33.63375094084617	1.30229205561744	0	-0.4153819989605898	-0.01626688485395446	0.005273480459775088	0.0001498775359047404	1.209946103098215	0	-0.5388724432079657	0	-0.3423045037988999	0	0	-1.301249432099534e-11	0
3.005	-29.04943186631954	577.4764770594486	-31.65832428390533	1.303453400415414	0	-0.4152599681229721	-0.0343723189971375	0.01103191757225246	0.0002746836100292021	1.229978793557307	0	-0.5389456850332807	0	-0.2727623911771246	0	0	-4.147054856636079e-11	0
3.01	-26.97463977903994	568.4297881139903	-29.53589337959632	1.304701885097668	0	-0.415135245004991	-0.07160025167583053	0.02277196655995099	0.0005021060492726333	1.250206818376693	0	-0.539010545190982	0	-0.2302318481513481	0	0	-1.346205889818375e-10	0
3.015	-25.06259798677969	559.6892940308099	-27.60647116982354	1.306038515747021	0	-0.4150054637855625	-0.1450055167633933	0.04574139151657264	0.0009081739516097056	1.27065488233381	0	-0.5390694130102263	0	-0.1991896132128375	0	0	-4.376393472876189e-10	0
3.02	-23.36340286852045	551.2161828384822	-25.97882414983642	1.30746050277696	0	-0.4148751430863811	-0.281760669031691	0.08823010923721926	0.001609578997680251	1.291347222785266	0	-0.5391242663658515	0	-0.1773353611467243	0	0	-1.402759134110781e-09	0
3.025	-21.86548144553856	543.0812037152493	-24.71783344346882	1.308964620368567	0	-0.4147477344707796	-0.5194052802393966	0.1615988268280643	0.00276739290916432	1.312303521650923	0	-0.5391761861420357	0	-0.151483908459241	0	0	-4.363040234222487e-09	0
3.03	-20.54902157505186	535.3713136931684	-23.86662638941294	1.310545633379687	0	-0.4146243707297677	-0.9001063520645235	0.278479021679222	0.004611025703154457	1.333539143209394	0	-0.5392278864724849	0	-0.0998167180675047	0	0	-1.300937455157858e-08	0
3.035	-19.40820970166946	528.1011781050863	-23.35262447842178	1.312190772452102	0	-0.4145023915085994	-1.456784619858077	0.4485856120367725	0.007450859130058472	1.355063020922562	0	-0.5392821206878566	0	-0.02302613809522924	0	0	-3.674867915699764e-08	0
3.04	-18.44602120268076	521.3467725994913	-23.17161611954348	1.313898695918474	0	-0.4143816594991657	-2.192054811872022	0.672407834169231	0.01167907167526473	1.376877207106927	0	-0.5393431161204294	0	0.07223687947143986	0	0	-9.741418778227984e-08	0
3.045	-17.63966848416301	515.2049949232788	-23.30477441234497	1.315672215176251	0	-0.4142637250807836	-3.060205319517499	0.9359619990785746	0.01777384028982116	1.398977745422177	0	-0.5394159477832854	0	0.1842249067264703	0	0	-2.401713899355395e-07	0
3.05	-16.97343112600407	509.7655620762364	-23.7271920406446	1.31751611908703	0	-0.4141522720025006	-3.969603153076419	1.211642160665323	0.02627795870365879	1.421350388356553	0	-0.5395084046084815	0	0.31103959881872	0	0	-5.483316937102134e-07	0
3.055	-16.39698326140004	505.1291612074162	-24.36556577131248	1.319434184724137	0	-0.4140521933609071	-4.790034194708963	1.460258132242667	0.03732660958229873	1.443979131247925	0	-0.5396294667243832	0	0.447832867453748	0	0	-1.155615391094933e-06	0
3.06	-15.86637709466728	501.4485944138904	-25.13817252572212	1.321427551112471	0	-0.4139727800715938	-5.382877242325162	1.64023948443392	0.05004933964442281	1.4668459579712	0	-0.539789382270604	0	0.5884103970149823	0	0	-2.242028944055008e-06	0
3.065	-15.31251787165863	498.8603761280138	-25.8641658728747	1.323499958159435	0	-0.4139218926925138	-5.646782330484633	1.721315346572776	0.06254749543474682	1.489925953702329	0	-0.5399997969892626	0	0.7197103648942971	0	0	-3.992290878829241e-06	0
3.07	-14.67812402221197	497.4592854072469	-26.45635257105919	1.325667424430104	0	-0.4139069040181054	-5.493483745375526	1.676473693547319	0.07229584480468086	1.51320238937437	0	-0.5402777510077161	0	0.8323072258813724	0	0	-6.483820746749913e-06	0
3.075	-13.92442584651804	497.3274101349162	-26.82554367217059	1.327945618392033	0	-0.4139319057534692	-4.896931456098791	1.497171047752031	0.0762141762543687	1.536664590406545	0	-0.5406472790077539	0	0.9147320428815036	0	0	-9.508547973782755e-06	0
3.08	-12.9894142551107	498.3990164713146	-26.95103477190297	1.33033835886527	0	-0.413993924768524	-3.911953674889096	1.199148136615925	0.07128796434752936	1.560309551571699	0	-0.5411425252632058	0	0.9639471251889731	0	0	-1.236180398589415e-05	0
3.085	-11.92497704865445	500.6521873272755	-26.90684196298689	1.332835038823607	0	-0.4140889185418467	-2.710240260653854	0.8336204871274513	0.0569857184946876	1.584119534909185	0	-0.5418184705612084	0	0.9823800123466953	0	0	-1.396728882341325e-05	0
3.09	-10.72294474807701	504.09392080307	-26.71596004316812	1.335398036924641	0	-0.4142096315857511	-1.541987389274897	0.4762746585139158	0.03662012661183739	1.608036081506103	0	-0.5427887995167124	0	0.9721515863377164	0	0	-1.348550152644595e-05	0
3.095	-9.415085741893451	508.6588126353597	-26.46576509349759	1.337993002589362	0	-0.4143526798384574	-0.655660966711875	0.2035370142811857	0.01717794944484888	1.6317807258162	0	-0.5444040471363227	0	0.9439697863434731	0	0	-1.092464045553479e-05	0
3.1	-8.068196016202215	514.1726717097933	-26.15663060869356	1.340600011939875	0	-0.4145167563692712	-0.1580835467243889	0.04937714912279899	0.004457206264373023	1.653390867814681	0	-0.5488453972106395	0	0.9035130805019236	0	0	-7.07956931716297e-06	0
3.105	-6.641596426606632	520.4344343244076	-25.7932548281912	1.343205744752864	0	-0.4146994705582634	-0.009807126762323695	0.003095353102453028	0.0002620457836302586	1.633818847730375	0	-0.5929453013693252	0	0.8539065365561385	0	0	-6.69753860448475e-07	0
3.11	-5.146720145885004	527.2730163680028	-25.39896909620773	1.345805821701336	0	-0.4148979809857585	-0.006172263135504959	0.001960475165223726	0.0001777051460339184	1.664861266299356	0	-0.5740443158200917	0	0.7977424292856981	0	0	-8.567884878516504e-07	0
3.115	-3.564100132800163	534.5340157637945	-24.98681111537853	1.348395705093516	0	-0.4151074011938993	-0.002263261114378327	0.0007249845694332372	6.660800003220881e-05	1.681659788659657	0	-0.5673888850256693	0	0.7336935064907024	0	0	-3.772151729755608e-07	0
3.12	-1.872964064406659	542.1273477221525	-24.61917893516363	1.350968877662141	0	-0.4153192941804147	-0.0007619854500163918	0.0002468701004202778	2.237983849181539e-05	1.691045324613896	0	-0.5934797602351329	0	0.6636709794444045	0	0	-1.562136986748343e-07	0
3.125	-0.05210549209841053	549.9809150787009	-24.37616505365136	1.353516106896027	0	-0.4155254779504768	-0.0002614103603020925	8.588215974352428e-05	7.127098292395653e-06	1.679403015479731	0	-0.6344176284483101	0	0.5929941910745242	0	0	-1.694394656397461e-08	0
3.13	1.939789203566831	558.0382611130661	-24.31041099037021	1.356026026190987	0	-0.4157198314256758	-0.0002298770451594639	7.640630703207737e-05	5.387954841470266e-06	1.654553561009521	0	-0.6147158989218704	0	0.5225782536024326	0	0	-4.767544222876756e-08	0
3.135	4.111452494223456	566.2861483551887	-24.46600055394538	1.358485746643556	0	-0.415898411504587	-0.0005002692449652054	0.0001681647407713186	9.365431055093647e-06	1.622974953516573	0	-0.5922715408413421	0	0.455906973052393	0	0	-6.543355095470797e-08	0
3.14	6.46460974780912	574.7454794265853	-24.84733749628122	1.360881019422153	0	-0.4160605099206521	-0.001713523891723212	0.0005832777895233584	2.742731633507245e-05	1.620980161511526	0	-0.5829296863802804	0	0.3952107269877487	0	0	-9.88099429204153e-08	0
3.145	9.024528095113883	583.3782555819915	-25.44143638390857	1.363193235715211	0	-0.4162053179850531	-0.005511738698433827	0.001903784120062114	7.582992410882938e-05	1.630788551290388	0	-0.5799076543802087	0	0.34137249408748	0	0	-1.047787433410636e-07	0
3.15	11.83543501306367	592.1431966572933	-26.22271844832565	1.36540703464898	0	-0.4163350328509259	-0.01448099187630819	0.005086435028066751	0.0001644576961605293	1.644963821402742	0	-0.5790706074089162	0	0.2946054317043547	0	0	-8.038541527338522e-08	0
3.155	14.88595418168445	601.102159809044	-27.18698845676955	1.367511656147757	0	-0.4164559118451579	-0.03024134531131461	0.01082568625523038	0.0002596648452208771	1.660521946849964	0	-0.5788175459167579	0	0.2543754991504699	0	0	-4.706102908579165e-08	0
3.16	18.12369371507673	610.3534976066672	-28.31621945602277	1.369499363761996	0	-0.4165748175541482	-0.05070285537020671	0.01853873249033903	0.0002744642103250638	1.676490871460476	0	-0.5786853341985214	0	0.2235836482081623	0	0	-2.145135499429223e-08	0
3.165	21.66242916171812	619.930784696617	-29.55370641560591	1.371369059358327	0	-0.4166953438439291	-0.06981360386782424	0.02613047206696422	0.0001284018192724766	1.692517837480053	0	-0.5785486326280075	0	0.2001388145163787	0	0	-7.681152808068767e-09	0
3.17	25.60456189914854	629.7915029911163	-30.88250108831687	1.37312880193549	0	-0.4168183264206237	-0.08116467280572789	0.03117101329338295	-0.0001716927988930141	1.708413004767313	0	-0.5783694834740987	0	0.1831768564999265	0	0	-2.158575979364832e-09	0
3.175	29.74361826517081	639.6846407556079	-32.21008016303126	1.374792868193109	0	-0.4169415052166786	-0.08219664224513522	0.03247077160129792	-0.0005285330216189841	1.72402847625245	0	-0.57813556918709	0	0.1754144039058403	0	0	-4.682231066624812e-10	0
3.18	33.85678605128946	649.3996908970122	-33.4020488607392	1.376389675250131	0	-0.4170676312608337	-0.07504679013688531	0.03057210063993127	-0.0008302383042194343	1.739231809927761	0	-0.5778416710151844	0	0.1790233897270639	0	0	-8.917967666416393e-11	0
3.185	37.94783927660174	659.1446957576368	-34.40024229387554	1.377965702819497	0	-0.4172154365264115	-0.06404904315581315	0.02697641806122002	-0.00102317920400093	1.753899112949852	0	-0.5774877262284206	0	0.2030258208767748	0	0	-2.901635897702148e-11	0
3.19	41.90393126450461	668.9504704242522	-35.03702702783465	1.379561648960051	0	-0.4174117562020685	-0.05299058848220528	0.02313688531519482	-0.001117775146012561	1.767916553761034	0	-0.5770767887006729	0	0.2489499635349972	0	0	-1.745770064967567e-11	0
3.195	45.75775640929665	678.7861115064009	-35.29404405422488	1.381199688495245	0	-0.4176856565393477	-0.04394121762973457	0.01994349270265204	-0.001159587236498347	1.781182497093766	0	-0.576614548287307	0	0.3125143792575003	0	0	-9.365353111079333e-12	0
3.2	49.54853573958751	688.6201273073765	-35.135119356087	1.382884045560043	0	-0.4180637577841157	-0.03755437956933842	0.01776717008176441	-0.001196973020699859	1.793612861676535	0	-0.5761075271284891	0	0.3878544690029528	0	0	-2.700845189856915e-12	0
3.205	53.26358381599654	698.2628020367473	-34.59377044862882	1.384601614323453	0	-0.4185635728093752	-0.03378983918571159	0.01671098646992295	-0.001271782438205179	1.805140469999751	0	-0.5755621416122099	0	0.4687676370016689	0	0	1.873781078215453e-12	0
3.21	56.97504648368175	707.6232114978513	-33.7522306860826	1.386332080204904	0	-0.419194271924199	-0.03250286167061327	0.01685238786666731	-0.001425937487521805	1.815717791099126	0	-0.5749832937028944	0	0.5513244403115678	0	0	5.113802610534623e-12	0
3.215	60.68123039436487	716.5195725969957	-32.67128439249251	1.388045761020277	0	-0.4199518259106828	-0.03379136050181843	0.01842285668327815	-0.001717562854799514	1.825315260862913	0	-0.5743745498949693	0	0.6323509565477679	0	0	8.101169908514283e-12	0
